<?xml version="1.0" encoding="utf-8"?>
<!-- Generator: Adobe Illustrator 22.0.1, SVG Export Plug-In . SVG Version: 6.00 Build 0)  -->
<svg version="1.1" id="Layer_1" xmlns="http://www.w3.org/2000/svg" xmlns:xlink="http://www.w3.org/1999/xlink" x="0px" y="0px"
	 width="250.1px" height="250.1px" viewBox="0 0 250.1 250.1" enable-background="new 0 0 250.1 250.1" xml:space="preserve">
<g>
	<path fill="#1E2A5B" d="M5.26,125.05C5.26,58.9,58.89,5.26,125.05,5.26S244.83,58.9,244.83,125.05S191.2,244.84,125.05,244.84
		S5.26,191.21,5.26,125.05"/>
	<path fill="none" stroke="#1E2A5B" stroke-width="0.7764" d="M0.44,125.05C0.44,56.23,56.23,0.44,125.05,0.44
		c68.82,0,124.61,55.79,124.61,124.61c0,68.82-55.79,124.61-124.61,124.61C56.23,249.66,0.44,193.87,0.44,125.05z"/>
	<path fill="#FFFFFF" d="M125.05,216.64c50.58,0,91.59-41.01,91.59-91.59c0-50.58-41-91.59-91.59-91.59s-91.59,41-91.59,91.59
		C33.46,175.63,74.46,216.64,125.05,216.64"/>
	<g>
		<g>
			<path fill="none" stroke="#1E2A5B" stroke-width="0.317" d="M50.21,150.35c0.5,0,0.91-0.88,0.91-1.97l1.76-29.97
				c0-1.09-0.88-1.97-1.97-1.97h-2.9c-1.08,0-1.97,0.88-1.97,1.97l1.91,29.97c0,1.09,0.41,1.97,0.92,1.97H50.21z"/>
			<path fill="none" stroke="#1E2A5B" stroke-width="0.317" d="M55.85,112.72c0.86,0,3.34-0.89,3.34-1.99c0-1.1-2.48-2-3.34-2H43.74
				c-0.85,0-3.34,0.89-3.34,2c0,1.1,2.48,1.99,3.34,1.99H55.85z"/>
			<path fill="none" stroke="#1E2A5B" stroke-width="0.317" d="M55.09,115.55c0.51,0,0.92-0.41,0.92-0.93
				c0-0.51-0.41-0.92-0.92-0.92h-10.6c-0.51,0-0.92,0.41-0.92,0.92c0,0.51,0.41,0.93,0.92,0.93H55.09z"/>
			<path fill="none" stroke="#1E2A5B" stroke-width="0.317" d="M55.09,107.76c0.51,0,0.92-0.41,0.92-0.92
				c0-0.51-0.41-0.93-0.92-0.93h-10.6c-0.51,0-0.92,0.41-0.92,0.93c0,0.51,0.41,0.92,0.92,0.92H55.09z"/>
			<path fill="#1E2A5B" d="M46.93,123.01c0.96-0.55,4.65,0.89,4.92,4.72l0.14-9.16c0,0-0.07-0.95-0.96-1.03
				c-0.76-0.05-2.87-0.06-2.87-0.06c-0.75,0-1.43,0.68-1.37,1.43C46.87,119.66,46.93,123.01,46.93,123.01"/>
			<path fill="#1E2A5B" d="M52.01,90.12c0.56,1.43,0.59,2.81,0.1,4.23c-0.35,1.01-0.98,2.3-1.46,2.99c-1.14,1.64-1.17,3.11-1.18,4.3
				c0,0.1-0.02,0.19-0.02,0.29c0.27,1.75,1.63,2.66,2.65,2.66c2.39,0,4.51-2.67,4.24-5.13C56.1,97.33,53.7,92.51,52.01,90.12z"/>
			<path fill="#1E2A5B" d="M46.24,92.56c-1.85,1.48-4.15,3.32-4.06,6.72c0,3.87,2.61,5.17,3.8,5.17c1.56,0,2.7-0.6,2.92-1.54
				c0.08-0.36,0.09-0.8,0.1-1.3c0.02-1.25,0.04-2.8,1.27-4.56c0.46-0.66,1.07-1.9,1.4-2.87c0.88-2.54-0.01-4.98-2.97-7.97
				c0.28,0.64,0.41,1.24,0.39,1.79c-0.03,0.78-0.32,1.53-0.56,2.13C48.19,91,47.29,91.72,46.24,92.56z"/>
		</g>
		<g>
			<path fill="none" stroke="#1E2A5B" stroke-width="0.317" d="M201.15,150.35c0.5,0,0.91-0.88,0.91-1.97l1.76-29.97
				c0-1.09-0.88-1.97-1.96-1.97h-2.9c-1.09,0-1.97,0.88-1.97,1.97l1.91,29.97c0,1.09,0.41,1.97,0.91,1.97H201.15z"/>
			<path fill="none" stroke="#1E2A5B" stroke-width="0.317" d="M206.79,112.72c0.85,0,3.34-0.89,3.34-1.99c0-1.1-2.48-2-3.34-2
				h-12.11c-0.85,0-3.34,0.89-3.34,2c0,1.1,2.48,1.99,3.34,1.99H206.79z"/>
			<path fill="none" stroke="#1E2A5B" stroke-width="0.317" d="M206.03,115.55c0.51,0,0.93-0.41,0.93-0.93
				c0-0.51-0.41-0.92-0.93-0.92h-10.6c-0.51,0-0.92,0.41-0.92,0.92c0,0.51,0.41,0.93,0.92,0.93H206.03z"/>
			<path fill="none" stroke="#1E2A5B" stroke-width="0.317" d="M206.03,107.76c0.51,0,0.93-0.41,0.93-0.92
				c0-0.51-0.41-0.93-0.93-0.93h-10.6c-0.51,0-0.92,0.41-0.92,0.93c0,0.51,0.41,0.92,0.92,0.92H206.03z"/>
			<path fill="#1E2A5B" d="M197.88,123.01c0.96-0.55,4.65,0.89,4.92,4.72l0.14-9.16c0,0-0.07-0.95-0.96-1.03
				c-0.76-0.05-2.87-0.06-2.87-0.06c-0.76,0-1.44,0.68-1.37,1.43C197.81,119.66,197.88,123.01,197.88,123.01"/>
			<path fill="#1E2A5B" d="M202.96,90.13c0.55,1.43,0.59,2.8,0.1,4.22c-0.35,1.01-0.98,2.3-1.47,2.99
				c-1.14,1.64-1.16,3.11-1.18,4.29c0,0.11-0.02,0.19-0.02,0.3c0.27,1.75,1.63,2.66,2.65,2.66c2.39,0,4.51-2.67,4.24-5.13
				C207.04,97.33,204.64,92.53,202.96,90.13z"/>
			<path fill="#1E2A5B" d="M197.18,92.56c-1.85,1.48-4.14,3.32-4.06,6.72c0,3.87,2.61,5.17,3.8,5.17c1.56,0,2.7-0.6,2.92-1.54
				c0.09-0.37,0.09-0.8,0.1-1.3c0.02-1.25,0.04-2.8,1.27-4.56c0.47-0.67,1.07-1.9,1.41-2.87c0.88-2.54-0.01-4.98-2.97-7.97
				c0.28,0.64,0.41,1.24,0.38,1.79c-0.03,0.79-0.33,1.56-0.56,2.13C199.13,91,198.23,91.72,197.18,92.56z"/>
		</g>
		<path fill="none" stroke="#1E2A5B" stroke-width="2.6366" d="M156.41,221.92v-84.78c-1.19-21.86-15.96-34.93-31.46-35.01
			c-15.97-0.09-31.13,14.88-31.85,32.04v87.34"/>
		<path fill="#1E2A5B" d="M63,219.42v-40.05h25.55v40.03H63.03 M186.58,219.94v-40.57h-25.45v40.56L186.58,219.94z M97.92,109.16
			c4-4.29,7.85-6.99,11.57-8.37l-18.9-38.02H63v28.92L97.92,109.16 M88.55,136.13H63v39.18h25.47L88.55,136.13z M88.57,131.47
			c0.86-9.12,2.86-12.77,6.17-18.21L63,97.85v33.62H88.57 M95.99,62.68l18.14,36.21c3.78-1.07,3.88-1.12,8.26-1.45V42.42h-26.4
			V62.68z M151.81,109.11l34.77-17.42V62.77h-27.59l-18.79,37.87C143.76,102.37,147.79,104.81,151.81,109.11 M161.21,175.31h25.37
			v-39.18h-25.35L161.21,175.31z M161.21,131.47h25.37V97.85l-31.71,15.23C159.08,119.85,160.13,122.8,161.21,131.47 M153.59,42.42
			h-26.41v54.91c4.42,0.49,3.42,0.14,8.34,1.58l18.07-36.23V42.42z"/>
		<path fill="#1E2A5B" d="M104.34,200.09l4.17-1.61c-0.18,0.51-0.35,1.26-0.5,2.11C106.47,200.45,105.18,200.28,104.34,200.09z
			 M98.44,205.45l5.84,1.86c0.15-2.68-0.01-6.2-0.4-7.05l-0.13-0.3l0.05,0.01l4.53-1.75c-1.51-0.26-6.58-1.17-8.77-1.97l2.48,5.35
			l-0.07,0.08L98.44,205.45z M142.15,200.59c-0.16-0.85-0.32-1.6-0.5-2.11l4.16,1.61C144.97,200.28,143.69,200.45,142.15,200.59z
			 M146.42,199.95l-0.13,0.3c-0.38,0.86-0.54,4.37-0.39,7.05l5.84-1.86l-3.59-3.86l2.48-5.34c-2.19,0.8-7.28,1.71-8.78,1.97
			l4.52,1.75L146.42,199.95z M145.93,210.04c-0.57-1.9-0.49-7.89-0.03-9.63c-4.12,0.91-18.7,1.3-20.81,1.3
			c-2.12,0-16.69-0.39-20.82-1.3c0.47,1.74,0.54,7.73-0.03,9.63c4.92,0.7,17.22,1.34,20.85,1.34S141.01,210.73,145.93,210.04z"/>
		<g>
			<path fill="#1E2A5B" d="M77.46,184.4c0.6-0.42,0.78-1.06,1.03-1.34l21.35-20.08c0,0,15.78-2.14,19.39-2.14
				c3.26,0,4.93,1.41,5.72,2.09h0.07c0.8-0.69,2.46-2.09,5.72-2.09c3.61,0,19.39,2.14,19.39,2.14l21.36,20.08
				c0.23,0.26,0.41,0.78,0.75,1.34c0.86,1.39,4.29,3.21,4.29,3.21l0.13,4.02h-51.82H73.04l0.13-4.02
				C73.18,187.61,76.12,185.34,77.46,184.4"/>
			<path fill="none" stroke="#FFFFFF" stroke-width="1.3167" d="M77.46,184.4c0.6-0.42,0.78-1.06,1.03-1.34l21.35-20.08
				c0,0,15.78-2.14,19.39-2.14c3.26,0,4.93,1.41,5.72,2.09h0.07c0.8-0.69,2.46-2.09,5.72-2.09c3.61,0,19.39,2.14,19.39,2.14
				l21.36,20.08c0.23,0.26,0.41,0.78,0.75,1.34c0.86,1.39,4.29,3.21,4.29,3.21l0.13,4.02h-51.82H73.04l0.13-4.02
				C73.18,187.61,76.12,185.34,77.46,184.4z"/>
			<path fill="none" stroke="#FFFFFF" stroke-width="0.7117" stroke-linecap="square" d="M80.01,182.96c0,0,29.94-3.38,35.7-3.38
				c4.78,0,7.95,1.74,9.04,3.38 M121.91,165.28c-3.08-2.45-17.17,0.41-20.25,0.82 M121.91,168.01c-3.08-2.45-19.68,0.82-22.76,1.23
				 M121.91,170.74c-3.08-2.45-22.63,1.09-25.71,1.5 M121.64,173.74c-3.08-2.46-25.71,1.23-28.79,1.64 M121.51,177.14
				c-2.68-3.13-28.82,1.19-31.9,1.6 M148.32,166.1c-3.08-0.4-17.17-3.27-20.25-0.82 M150.83,169.24
				c-3.08-0.41-19.69-3.68-22.76-1.23 M153.78,172.23c-3.08-0.41-22.63-3.95-25.71-1.5 M157.13,175.37
				c-3.08-0.41-25.71-4.09-28.79-1.64 M160.37,178.75c-3.08-0.41-29.23-4.74-31.9-1.6 M169.98,182.96c0,0-29.94-3.38-35.7-3.38
				c-4.78,0-7.95,1.74-9.04,3.38 M124.99,187.74v-24.42"/>
			<path fill="#FFFFFF" d="M80,187.4h41.24C115.48,181.37,103.97,185.79,80,187.4"/>
			<path fill="#FFFFFF" d="M169.95,187.4h-41.24C134.47,181.37,145.99,185.79,169.95,187.4"/>
		</g>
		<path fill="none" stroke="#1E2A5B" stroke-width="1.5884" d="M101.85,133.47c0-12.68,10.28-22.96,22.96-22.96
			c12.68,0,22.96,10.28,22.96,22.96c0,12.68-10.28,22.96-22.96,22.96C112.13,156.43,101.85,146.15,101.85,133.47z M124.83,156.4
			c12.68,0,22.96-10.28,22.96-22.96 M147.79,133.45c0-12.68-10.28-22.96-22.96-22.96 M124.83,110.48
			c-12.68,0-22.96,10.28-22.96,22.96 M101.87,133.45c0,12.68,10.28,22.96,22.96,22.96 M115.82,112.35c1.81,0.81,5.16,1.34,8.99,1.34
			c3.83,0,7.18-0.54,8.99-1.34 M111.03,115.17c3.18,1.63,8.17,2.69,13.78,2.69c5.7,0,10.76-1.09,13.93-2.77 M106.49,119.87
			c4.69,2.28,11.17,3.69,18.33,3.69c7.24,0,13.79-1.45,18.49-3.77 M103.78,124.92c5.38,3.57,12.82,5.78,21.03,5.78
			c8.28,0,15.78-2.25,21.17-5.87 M133.93,154.71c-1.81-0.81-5.16-1.35-8.99-1.35c-3.83,0-7.18,0.54-8.99,1.35 M138.72,151.9
			c-3.18-1.64-8.17-2.69-13.78-2.69c-5.7,0-10.76,1.08-13.93,2.76 M143.26,147.2c-4.69-2.28-11.17-3.69-18.32-3.69
			c-7.24,0-13.79,1.44-18.49,3.77 M145.97,142.15c-5.38-3.57-12.81-5.78-21.03-5.78c-8.28,0-15.78,2.25-21.17,5.87 M124.82,152.91
			v-38.77C110.79,122.07,113.26,146,124.82,152.91z M118.96,113.61c-16.66,8.54-14.61,30.94,0.37,39.85 M124.82,114.15v38.77
			C138.9,144.96,136.97,121.42,124.82,114.15z M130.67,153.46c17-8.71,13.53-31.61-0.13-39.73"/>
	</g>
	<path fill="none" stroke="#FFFFFF" stroke-width="2.1157" d="M33.46,125.05c0-50.58,41-91.59,91.58-91.59s91.59,41,91.59,91.59
		c0,50.58-41,91.59-91.59,91.59S33.46,175.63,33.46,125.05z M125.05,222.33c53.72,0,97.27-43.55,97.27-97.28
		c0-53.72-43.55-97.28-97.27-97.28c-53.72,0-97.27,43.55-97.27,97.28C27.77,178.78,71.32,222.33,125.05,222.33z"/>
	<path fill="#FFFFFF" d="M111.91,203.59l-0.06,0.7c-0.45-0.11-0.91-0.17-1.37-0.21c-0.13-0.01-0.22-0.01-0.41-0.02
		c-0.03,0.2-0.06,0.53-0.07,0.75c-0.01,0.11-0.02,0.25-0.04,0.6l1.21,0.06l-0.06,0.71l-1.21-0.14c-0.04,0.27-0.07,0.6-0.09,0.86
		c-0.02,0.19-0.03,0.4-0.03,0.61c0.63,0.04,1.26,0.08,1.88,0.08l-0.06,0.67l-2.7-0.22c0.02-0.28,0.15-1.53,0.17-1.79
		c0.08-0.95,0.18-1.92,0.2-2.89L111.91,203.59z M113.26,208.19c0.24,0.14,0.76,0.28,1.07,0.29c0.9,0.04,1.68-0.55,1.72-1.51
		c0.06-1.57-1.93-1.29-1.9-2.18c0.01-0.34,0.29-0.53,0.7-0.52c0.36,0.01,0.65,0.19,0.84,0.41l0.04-0.9
		c-0.19-0.1-0.41-0.14-0.62-0.15c-0.95-0.04-1.7,0.61-1.73,1.43c-0.05,1.28,1.93,1.17,1.9,2.15c-0.02,0.37-0.33,0.66-0.79,0.64
		c-0.43-0.01-0.77-0.26-1.18-0.65L113.26,208.19z M120.53,203.84l-3.01-0.05l-0.01,0.68c0.44-0.06,0.58-0.07,1.09-0.08
		c0.01,0.53-0.01,1.06-0.02,1.59c-0.02,0.93-0.05,1.48-0.09,2.51l0.91,0.01c-0.02-0.58-0.02-1.21-0.01-1.76
		c0.01-0.78,0.04-1.55,0.05-2.34c0.33,0.03,0.79,0.05,1.08,0.11L120.53,203.84z M120.68,207.69c-0.25,0-0.46,0.2-0.46,0.45
		c0,0.25,0.2,0.45,0.45,0.46c0.25,0,0.45-0.2,0.46-0.45C121.13,207.89,120.93,207.69,120.68,207.69 M125.44,204.78l0.83-0.01
		l0.04,3.25l-0.77,0.01l0,0.5l2.28-0.03l-0.01-0.5l-0.73,0.01l-0.05-4.07l-1.6,0.42L125.44,204.78z M131.62,205.39
		c-0.02-0.69-0.34-0.94-0.68-0.93c-0.29,0.01-0.63,0.29-0.62,0.96c0.01,0.49,0.25,0.82,0.65,0.82c0.25-0.01,0.47-0.15,0.66-0.48
		L131.62,205.39z M129.82,207.6c0.14,0.14,0.42,0.36,0.71,0.35c0.49-0.01,0.98-0.59,1.04-1.45l-0.02-0.01
		c-0.15,0.18-0.43,0.37-0.8,0.38c-0.64,0.02-1.25-0.47-1.27-1.35c-0.02-0.93,0.66-1.59,1.44-1.61c0.86-0.02,1.5,0.7,1.53,1.86
		c0.04,1.5-0.9,2.73-2.02,2.76c-0.22,0.01-0.47-0.05-0.59-0.09L129.82,207.6z M135.97,204.81c-0.01-0.29-0.24-0.57-0.67-0.55
		c-0.4,0.02-0.64,0.3-0.63,0.56c0.01,0.27,0.38,0.53,0.82,0.7C135.74,205.37,135.99,205.13,135.97,204.81 M136.62,204.76
		c0.01,0.31-0.09,0.68-0.61,1.01c0.47,0.23,0.85,0.7,0.87,1.18c0.04,0.9-0.7,1.37-1.5,1.4c-1.05,0.05-1.5-0.56-1.53-1.08
		c-0.03-0.68,0.62-1.12,0.81-1.25c-0.43-0.31-0.67-0.64-0.69-1.03c-0.03-0.55,0.43-1.2,1.37-1.25
		C136.12,203.71,136.59,204.19,136.62,204.76 M136.11,207.15c-0.02-0.45-0.91-0.83-1-0.83c-0.05,0-0.57,0.39-0.55,0.86
		c0.02,0.36,0.33,0.65,0.82,0.62C135.85,207.78,136.13,207.5,136.11,207.15 M140.34,204.92c-0.06-0.69-0.38-0.92-0.73-0.89
		c-0.29,0.03-0.62,0.32-0.56,0.99c0.04,0.49,0.29,0.81,0.69,0.78c0.25-0.02,0.46-0.17,0.64-0.51L140.34,204.92z M138.67,207.23
		c0.14,0.13,0.44,0.33,0.73,0.31c0.49-0.04,0.95-0.64,0.95-1.5l-0.02-0.01c-0.13,0.19-0.41,0.39-0.78,0.42
		c-0.64,0.06-1.27-0.39-1.35-1.27c-0.08-0.93,0.57-1.63,1.35-1.7c0.86-0.07,1.54,0.61,1.64,1.77c0.13,1.5-0.74,2.78-1.86,2.87
		c-0.22,0.02-0.48-0.02-0.6-0.06L138.67,207.23z M14.63,105.5c-0.53,0.39-1.18,1.04-1.3,1.88c-0.28,1.94,1.95,2.92,3.81,3.19
		c2.59,0.38,4.17-0.58,4.39-2.07c0.12-0.8-0.29-1.54-0.59-1.9l0.77-0.57c0.42,0.41,1.39,1.7,1.18,3.13
		c-0.29,2.02-2.36,3.96-5.56,3.49c-2.83-0.41-5.7-2.61-5.24-5.83c0.11-0.74,0.31-1.28,0.52-1.62L14.63,105.5z M21.1,97.61
		c0.07-0.27,0.13-0.56,0.25-1.05c-1.46,0-2.96,0.05-3.78,0.12l-0.01,0.03c0.86,0.57,2.97,1.82,3.22,1.99
		C20.93,98.17,21.02,97.9,21.1,97.61 M14.75,95.01l11.2-0.5l-0.53,2.01c-0.34-0.01-2.04,0-2.61,0.05c-0.17,0.59-0.31,1.04-0.42,1.45
		c-0.12,0.44-0.21,0.84-0.34,1.41c0.74,0.46,1.37,0.78,2.28,1.21l-0.46,1.74c-2.87-1.81-5.52-3.6-8.62-5.46l-1.01,0.06L14.75,95.01z
		 M17.58,85.98c1.64,0.56,3.81,1.31,5.7,2.05c1.44,0.56,2.88,1.15,4.3,1.76l2.15-5.51l-1.45-0.57c-0.19,0.82-0.33,1.35-1.26,3.73
		c-1.02-0.35-5.07-1.93-5.86-2.24c-0.68-0.27-2.05-0.85-2.8-1.18L17.58,85.98z M22.44,74.65c0.96,0.42,3.63,1.71,4.59,2.19
		c1.22,0.61,3.9,1.98,4.95,2.63l0.94-1.87c-1.15-0.46-3.84-1.8-5.06-2.41c-0.96-0.48-3.59-1.86-4.5-2.38L22.44,74.65z M26.69,66.78
		c1.15,0.7,2.91,1.72,4.26,2.56c2.59,1.61,4.11,2.72,4.74,3.22l1.12-1.8c-1.51-0.89-2.02-1.18-2.68-1.59
		c-0.59-0.37-0.88-0.57-1.27-0.82l1.5-2.12l-1.41-0.88l-1.32,2.23l-2.66-1.65c0.19-0.39,0.4-0.74,0.6-1.04
		c0.27-0.43,1.09-1.63,1.44-2.12l-1.31-0.82L26.69,66.78z M36.26,54.86c-0.73,0.93-0.03,2.42,2.13,4.13
		c2.16,1.71,3.78,2.05,4.51,1.13c0.73-0.93,0.03-2.42-2.13-4.13C38.61,54.28,36.99,53.94,36.26,54.86 M35.22,54.05
		c1.38-1.75,4.18-1.66,6.77,0.39c2.59,2.05,3.33,4.75,1.94,6.5c-1.38,1.75-4.18,1.66-6.77-0.39C34.57,58.49,33.84,55.8,35.22,54.05
		 M46.78,47.98c0.12-0.12,0.25-0.22,0.59-0.56c0.79-0.78,1.11-1.73,0.31-2.53c-1-1.01-1.93-0.43-2.76,0.39
		c-0.08,0.08-0.22,0.25-0.38,0.45L46.78,47.98z M49.82,53.76c-0.53-0.66-1.87-1.97-2.49-2.59c-2.23-2.24-3.89-3.93-5.07-4.97
		l2.42-2.41c1.34-1.33,2.97-1.69,4.33-0.32c1.22,1.23,0.84,2.46,0.5,3.28c0.7,0.38,4.86,1.89,5.27,2.07l-1.59,1.59
		c-1.53-0.82-3.13-1.51-4.71-2.19l-0.71,0.75c0.85,0.86,2.61,2.62,3.44,3.4L49.82,53.76z M51.94,37.14c0.87,0.99,2.35,2.84,3.18,3.9
		c1.16,1.48,2.47,3.16,3.46,4.48l1.38-1.08c-1.71-2.01-3.35-4.07-4.97-6.15l0.02-0.02c0.24,0.21,0.48,0.39,1.04,0.67l5.09,2.5
		c1.02,0.49,1.2,0.58,1.61,0.81l1.06-0.83c-0.56-0.66-1.61-1.95-2.71-3.36C59.5,36.04,57.8,33.8,57.21,33l-1.36,1.06
		c1.45,1.72,2.86,3.47,4.31,5.15l-0.01,0.04c-0.35-0.26-0.58-0.4-1.61-0.91c-1.67-0.82-3.19-1.72-5-2.47L51.94,37.14z M63.03,29.04
		c0.61,0.85,2.24,3.34,2.81,4.24c0.73,1.15,2.33,3.7,2.9,4.79l1.77-1.12c-0.75-0.98-2.37-3.52-3.1-4.67
		c-0.58-0.91-2.13-3.44-2.64-4.35L63.03,29.04z M76.58,29.09c0.25-0.13,0.5-0.27,0.95-0.51c-0.97-1.09-2-2.18-2.59-2.75l-0.03,0.01
		c0.14,1.02,0.61,3.43,0.65,3.73C76.05,29.33,76.31,29.22,76.58,29.09 M74.31,22.61l7.81,8.04l-1.86,0.94
		c-0.22-0.26-1.36-1.53-1.78-1.92c-0.55,0.26-0.98,0.46-1.37,0.65c-0.4,0.2-0.77,0.4-1.28,0.68c0.15,0.86,0.33,1.55,0.61,2.51
		l-1.6,0.81c-0.55-3.35-0.97-6.52-1.64-10.07l-0.71-0.71L74.31,22.61z M101.51,23.73c0.6,0.18,1.83,0.21,2.52,0.07
		c2.01-0.4,3.44-2.11,3.01-4.27c-0.71-3.52-4.97-1.84-5.36-3.83c-0.15-0.75,0.36-1.34,1.28-1.52c0.79-0.16,1.54,0.07,2.08,0.47
		l-0.4-2.01c-0.48-0.12-0.98-0.09-1.47,0c-2.13,0.43-3.44,2.26-3.08,4.09c0.58,2.86,4.91,1.56,5.35,3.75
		c0.17,0.84-0.38,1.63-1.42,1.84c-0.97,0.2-1.83-0.16-2.96-0.82L101.51,23.73z M118.09,10.92l-6.83,0.61l0.14,1.55
		c0.99-0.24,1.3-0.3,2.46-0.43c0.15,1.2,0.23,2.4,0.34,3.61c0.19,2.12,0.25,3.38,0.4,5.71l2.06-0.18c-0.18-1.32-0.34-2.74-0.45-3.99
		c-0.16-1.78-0.29-3.54-0.45-5.32c0.77-0.02,1.8-0.07,2.48-0.01L118.09,10.92z M125.59,17.56c0.28,0,0.57-0.01,1.08-0.02
		c-0.37-1.41-0.79-2.85-1.05-3.63l-0.03,0c-0.34,0.97-1.03,3.34-1.12,3.62C125.01,17.55,125.3,17.56,125.59,17.56 M126.52,10.77
		l3.28,10.71l-2.08-0.01c-0.07-0.33-0.51-1.98-0.7-2.52c-0.61-0.02-1.08-0.04-1.51-0.04c-0.45,0-0.87,0.01-1.45,0.02
		c-0.26,0.84-0.41,1.52-0.6,2.51l-1.8-0.01c1.04-3.23,2.11-6.25,3.13-9.72l-0.31-0.96L126.52,10.77z M140.46,11.74l-6.82-0.71
		l-0.16,1.55c1.01-0.05,1.33-0.04,2.49,0.05c-0.08,1.21-0.23,2.4-0.36,3.6c-0.22,2.12-0.41,3.36-0.71,5.68l2.05,0.22
		c0.08-1.33,0.19-2.75,0.33-4c0.18-1.77,0.4-3.53,0.58-5.3c0.75,0.13,1.78,0.28,2.44,0.47L140.46,11.74z M146.51,12.75
		c-0.33,2.16-0.84,4.34-1.3,6.48c-0.12,0.57-0.77,3.36-0.9,3.99l6.06,1.3L150.7,23c-1.42-0.18-2.83-0.47-4.24-0.74
		c0.07-0.46,0.16-0.95,0.25-1.37c0.13-0.6,0.3-1.33,0.46-1.92l2.7,0.67l0.34-1.58l-2.71-0.49c0.14-0.8,0.2-1.11,0.26-1.36
		c0.11-0.48,0.27-1.23,0.39-1.68c0.43,0.07,0.62,0.1,0.92,0.16c1.03,0.22,2.04,0.5,3.03,0.88l0.34-1.57L146.51,12.75z M175.22,22.28
		c-0.34,0.74-0.44,0.99-1.59,3.18c-0.53,1.01-1.08,1.99-1.61,3c-1.48,2.81-0.86,4.01,0.98,4.99c1.95,1.03,3.32,0.64,4.42-1.23
		c0.28-0.49,3.06-5.75,3.69-6.82l-1.46-0.77c-0.14,0.32-0.16,0.42-0.69,1.43l-2.46,4.67c-1.07,2.04-1.86,2.12-2.72,1.67
		c-1.01-0.53-0.95-1.45-0.48-2.34l2.62-4.97c0.35-0.63,0.66-1.26,1.04-1.88L175.22,22.28z M187.1,29.01
		c-0.69,1.13-2.02,3.08-2.79,4.19c-1.07,1.55-2.28,3.3-3.25,4.63l1.44,1c1.41-2.23,2.9-4.41,4.39-6.58l0.02,0.02
		c-0.13,0.29-0.23,0.57-0.33,1.19l-0.88,5.6c-0.17,1.12-0.2,1.32-0.3,1.78l1.11,0.77c0.47-0.73,1.39-2.12,2.4-3.58
		c1.46-2.12,3.1-4.41,3.68-5.21l-1.42-0.98c-1.21,1.89-2.47,3.76-3.64,5.64l-0.04,0.01c0.14-0.41,0.21-0.68,0.39-1.81
		c0.28-1.84,0.69-3.56,0.87-5.51L187.1,29.01z M198.12,37.17c-0.63,0.84-2.52,3.13-3.21,3.95c-0.88,1.04-2.84,3.33-3.71,4.19
		l1.6,1.36c0.71-1.01,2.65-3.31,3.53-4.35c0.7-0.82,2.65-3.06,3.37-3.82L198.12,37.17z M204.15,42.48
		c-1.07,1.94-3.37,6.06-4.64,8.11c-0.25,0.41-0.52,0.88-0.88,1.54l1.36,1.39l0.46-0.92c2.95-1.63,5.96-3.2,8.97-4.73l-1.23-1.25
		c-1.39,1.15-5.16,3.12-6.81,4.02l-0.02-0.02c1.41-2.2,2.82-4.64,4.25-6.64L204.15,42.48z M213.41,52.52
		c-1.64,1.45-3.42,2.8-5.15,4.14c-0.46,0.36-2.74,2.09-3.24,2.48l3.82,4.89l1.21-0.95c-0.97-1.05-1.87-2.17-2.78-3.28
		c0.35-0.31,0.73-0.63,1.07-0.9c0.49-0.38,1.08-0.83,1.59-1.18l1.65,2.25l1.27-1l-1.77-2.12c0.62-0.52,0.87-0.71,1.07-0.87
		c0.39-0.3,0.99-0.77,1.37-1.04c0.28,0.33,0.41,0.48,0.6,0.71c0.65,0.82,1.25,1.69,1.76,2.61l1.26-0.99L213.41,52.52z M218.06,66.6
		c0.09,0.14,0.16,0.29,0.41,0.7c0.58,0.94,1.43,1.47,2.39,0.88c1.21-0.74,0.86-1.78,0.25-2.77c-0.06-0.1-0.19-0.27-0.35-0.47
		L218.06,66.6z M211.74,68.23c0.76-0.36,2.34-1.37,3.09-1.83c2.69-1.65,4.72-2.88,6-3.79l1.79,2.91c0.99,1.6,0.96,3.28-0.69,4.29
		c-1.48,0.91-2.58,0.26-3.31-0.27c-0.53,0.59-2.95,4.29-3.22,4.65l-1.18-1.91c1.15-1.31,2.19-2.7,3.21-4.08l-0.57-0.86
		c-1.04,0.63-3.15,1.94-4.1,2.57L211.74,68.23z M217.95,78.27c-0.04,0.63,0.23,1.83,0.52,2.47c0.87,1.86,2.87,2.84,4.87,1.91
		c3.25-1.52,0.61-5.26,2.44-6.12c0.69-0.32,1.39,0.03,1.79,0.88c0.34,0.73,0.3,1.51,0.04,2.13l1.86-0.87c0-0.49-0.14-0.98-0.35-1.42
		c-0.92-1.97-3.02-2.8-4.7-2.02c-2.64,1.24-0.35,5.14-2.37,6.09c-0.77,0.36-1.68,0.02-2.13-0.94c-0.42-0.9-0.28-1.82,0.1-3.07
		L217.95,78.27z M232.32,85.54c-0.96,0.41-3.74,1.45-4.76,1.81c-1.28,0.46-4.12,1.46-5.32,1.78l0.71,1.97
		c1.12-0.51,3.95-1.54,5.23-2c1.02-0.36,3.82-1.32,4.83-1.62L232.32,85.54z M236.58,99.79l-1.71-6.64l-1.51,0.39
		c0.39,0.93,0.5,1.23,0.82,2.36c-1.16,0.35-2.33,0.62-3.5,0.92c-2.06,0.53-3.3,0.79-5.57,1.31l0.51,2c1.27-0.39,2.65-0.78,3.87-1.09
		c1.72-0.45,3.45-0.86,5.17-1.3c0.15,0.75,0.36,1.76,0.41,2.45L236.58,99.79z M237.61,104.82c-1.84,1.37-3.84,2.58-5.74,3.85
		c-1.47,0.21-2.95,0.42-4.42,0.62l0.27,1.87c1.4-0.28,1.9-0.35,4.62-0.74c0.84,0.18,5.67,1.86,6.39,2.12l-0.27-1.85
		c-1.59-0.33-3.14-0.81-4.71-1.21c1.16-0.68,2.95-1.89,4.18-2.48L237.61,104.82z M66.06,219.06c0.39,1.24,0.8,2.08,1.64,2.58
		c0.91,0.54,1.84,0.31,2.27-0.42c1.13-1.91-2.94-3.84-1.47-6.34c0.94-1.59,3.13-2.08,4.99-0.98c0.42,0.25,0.81,0.56,1.09,0.97
		l-1.04,1.76c-0.14-0.65-0.53-1.32-1.23-1.73c-0.81-0.48-1.58-0.38-1.96,0.28c-1.03,1.73,3.24,3.32,1.43,6.4
		c-1.12,1.89-3.31,2.2-5.07,1.16c-0.6-0.36-1.49-1.19-1.81-1.73L66.06,219.06z M80.23,225.18c0.26,0.12,0.52,0.22,0.99,0.41
		c0.23-1.43,0.42-2.91,0.49-3.73l-0.03-0.01c-0.69,0.75-2.27,2.63-2.46,2.85C79.71,224.93,79.96,225.06,80.23,225.18 M83.8,219.36
		l-1.29,11.08l-1.89-0.84c0.06-0.33,0.32-2.01,0.37-2.58c-0.55-0.26-0.97-0.46-1.36-0.64c-0.41-0.18-0.8-0.34-1.33-0.56
		c-0.57,0.66-0.99,1.23-1.55,2.05l-1.63-0.73c2.24-2.53,4.42-4.85,6.74-7.6l0.1-1L83.8,219.36z M91.37,222.39
		c-0.32,1.27-1,3.53-1.4,4.81c-0.56,1.8-1.18,3.82-1.71,5.37l1.67,0.52c0.68-2.54,1.44-5.05,2.21-7.55l0.03,0.01
		c-0.04,0.32-0.05,0.61,0.04,1.23l0.83,5.58c0.17,1.11,0.2,1.31,0.25,1.78l1.28,0.4c0.23-0.83,0.69-2.42,1.21-4.12
		c0.76-2.45,1.63-5.11,1.95-6.04l-1.64-0.51c-0.59,2.16-1.22,4.3-1.77,6.44l-0.04,0.02c0.01-0.43,0-0.7-0.16-1.83
		c-0.28-1.83-0.4-3.59-0.81-5.49L91.37,222.39z M114.94,227.56c-0.06,1.62-0.09,2.59-0.17,4.02c-0.2,3.5-0.36,4.97-0.55,6.6
		l1.74,0.1c0-0.05,0-0.24,0-0.36c0.11-2.69,0.22-5.39,0.34-8.07h0.03c0.6,2.27,1.15,4.51,1.64,6.81l1.13,0.06
		c0.78-2.21,1.59-4.4,2.39-6.58h0.03c-0.22,2.8-0.36,5.61-0.58,8.41l1.91,0.11c-0.05-1.52,0.14-4.51,0.25-6.46
		c0.13-2.2,0.21-2.99,0.32-4.16l-2.63-0.15c-0.58,1.89-1.24,3.75-1.91,5.61l-0.03,0c-0.44-1.93-0.89-3.86-1.35-5.79L114.94,227.56z
		 M132.67,234.47c0.28-0.02,0.57-0.05,1.07-0.1c-0.47-1.37-1-2.77-1.32-3.52l-0.03,0c-0.26,0.99-0.76,3.38-0.83,3.67
		C132.09,234.49,132.38,234.49,132.67,234.47 M133.08,227.66l4.07,10.38l-2.06,0.14c-0.1-0.32-0.66-1.92-0.89-2.45
		c-0.61,0.03-1.07,0.05-1.5,0.07c-0.45,0.03-0.86,0.08-1.44,0.13c-0.19,0.85-0.29,1.54-0.4,2.54l-1.78,0.13
		c0.79-3.28,1.61-6.36,2.37-9.88l-0.38-0.93L133.08,227.66z M143.89,230.75c0.16-0.03,0.33-0.05,0.79-0.14
		c1.08-0.2,1.88-0.81,1.67-1.91c-0.26-1.39-1.35-1.43-2.49-1.21c-0.12,0.02-0.32,0.07-0.56,0.15L143.89,230.75z M143.17,237.21
		c-0.07-0.84-0.44-2.66-0.6-3.53c-0.58-3.09-1-5.41-1.39-6.92l3.34-0.63c1.84-0.35,3.39,0.27,3.74,2.16
		c0.32,1.7-0.68,2.49-1.42,2.98c0.36,0.71,2.94,4.27,3.18,4.65l-2.2,0.41c-0.81-1.53-1.73-2.99-2.65-4.43l-1.01,0.22
		c0.22,1.18,0.68,3.62,0.93,4.72L143.17,237.21z M158.7,222.57c-0.39-0.05-0.97,0-1.68,0.22c-3.09,0.95-3.84,4.47-3,7.19
		c0.95,3.08,3.57,4.11,5.51,3.51c1.38-0.43,2.13-1.84,2.32-2.4l-0.84-0.44c-0.2,0.42-0.69,1.1-1.46,1.34
		c-1.44,0.45-2.97-0.56-3.74-3.06c-0.55-1.78-0.63-4.2,1.24-4.78c0.82-0.25,1.67,0.06,2.25,0.37L158.7,222.57z M167.09,220.22
		c-1.08,0.48-1.15,2.12-0.04,4.63c1.11,2.51,2.37,3.56,3.45,3.09c1.08-0.48,1.15-2.12,0.04-4.63
		C169.43,220.79,168.17,219.74,167.09,220.22 M166.56,219.02c2.03-0.9,4.45,0.48,5.78,3.49c1.33,3.01,0.72,5.73-1.31,6.62
		c-2.03,0.9-4.45-0.48-5.78-3.49C163.92,222.63,164.53,219.92,166.56,219.02 M179.9,224.13c0.63-0.02,1.79-0.4,2.39-0.75
		c1.76-1.04,2.54-3.11,1.43-5c-1.82-3.08-5.27-0.11-6.29-1.84c-0.39-0.65-0.1-1.38,0.71-1.85c0.69-0.41,1.47-0.44,2.11-0.24
		l-1.04-1.76c-0.49,0.05-0.95,0.24-1.38,0.49c-1.86,1.1-2.49,3.25-1.55,4.84c1.48,2.5,5.13-0.14,6.26,1.78
		c0.43,0.73,0.18,1.66-0.73,2.19c-0.85,0.5-1.78,0.45-3.05,0.19L179.9,224.13z"/>
</g>
</svg>
