<?xml version="1.0" encoding="utf-8"?>
<!-- Generator: Adobe Illustrator 25.0.1, SVG Export Plug-In . SVG Version: 6.00 Build 0)  -->
<svg version="1.0" id="katman_1" xmlns="http://www.w3.org/2000/svg" xmlns:xlink="http://www.w3.org/1999/xlink" x="0px" y="0px"
	 viewBox="0 0 694 508" style="enable-background:new 0 0 694 508;" xml:space="preserve">
<style type="text/css">
	.st0{fill:#1D191A;}
	.st1{fill:#0D0909;}
</style>
<path class="st0" d="M146.2,188.4c0.2-1.3,0.2-2.7,0-4c0.8-12,0.9-23.9,0.8-35.8c0-3.9-0.4-7.8-0.7-11.6c-0.2-1.4-0.2-2.9,0-4.3
	c0.4-3.7,3.8-6.4,7.6-6c0.1,0,0.1,0,0.2,0c4,0,7.8,0,11.7,0h10.6c1.5-0.1,3,0.1,4.4,0.6c1.9,0.5,3.4,2,4,3.9c0.1,0.8,0.1,1.7,0,2.5
	c0,7.3,0,14.6,0,21.8c0,3.8,0,7.5-0.4,11.2c-0.2,2.2-0.2,4.3,0,6.5c0.3,3.4,0.3,6.8,0,10.2c-0.6,2.4,0.9,4.7,3.2,5.3
	c0.2,0,0.4,0.1,0.6,0.1c3.1,0.2,6.2,0,9.2-0.5c2.1,0,3.2-1.9,3.4-4.3c0.4-6.1,0-12.1,0-18.1c0-10.6,0-21.2,0-31.8
	c0-1.2,0.2-2.3,0.6-3.5c1.1-2.9,3.9-4.7,7-4.5c2.8-0.1,5.6,0.1,8.4,0.5c2.6,0.3,5.1,0.3,7.7,0c3.1-0.5,6.2-0.7,9.4-0.4
	c2.7,0.3,5.1,2,6.2,4.5c0.6,2,0.8,4.1,0.7,6.2c-0.4,4.8-0.6,9.6-0.8,14.5c-0.3,4.9-0.3,9.8,0,14.8c0,4.6,0,9.1,0,13.7
	c0,11.6,0,23.3,0,34.8c0,6.7-0.5,13.4,0,20.2c0.5,6.7,0,15.4,0,23.2c0,7.8,0,13.6,0,20.4c0,2.6,0,5.3,0.6,7.9c0.4,2.5,0.4,5.1,0,7.7
	c-0.5,3.2-3,5.7-6.2,6c-3.2,0.3-6.4,0.3-9.5,0c-3.9-0.3-7.8-0.3-11.6,0c-2.5,0.5-5,0.5-7.5,0c-2.4-0.8-4.1-3.1-4.3-5.6
	c-0.4-3.4-0.4-6.9,0-10.4c0.6-7.6,0.9-15.3,0.7-22.9c-0.2-6.6,0-13.1,0.5-19.6c0.3-3.4,0-6.9-0.8-10.2c-0.2-1.9-1.7-3.4-3.5-3.6
	c-3.3-0.7-6.6-0.7-9.9,0c-1.9,0.3-3.3,1.9-3.3,3.9c0,4-0.6,7.9-0.7,11.9c0.1,4.1,0.4,8.2,0.9,12.3c0.4,5.3,0.4,10.6,0,15.9
	c-0.3,4.5-0.3,8.9,0,13.4c0.2,3.1,0.2,6.3,0,9.4c0,2.7-1.8,5-4.4,5.6c-1.2,0.3-2.4,0.3-3.5,0c-6.4-0.5-12.8-0.5-19.1,0
	c-2.6,0.2-5.2,0-7.8-0.5c-2.7-0.9-4.4-3.6-4.1-6.4v-32.2c0-2.4,0-4.8,0-7.3l0,0v-7.8c0-2.2,0-4.4,0-6.6c0-3.9,0-7.7,0-11.6
	c0-6.7,0-13.4,0-20.2c0-1.9,0-3.8,0-5.6L146.2,188.4z"/>
<path class="st0" d="M446.2,400H422c-14.4,0-28.8,0-43.3,0c-22.9,0-45.8,0-68.7,0h-22.8c-22.9,0-45.8,0-68.7,0h-22.5
	c-16.1,0-32.1,0-48.2,0c-0.6,0-1.2,0-1.2-0.8c0-0.8,0.4-0.8,0.9-0.8h10.6l23.4-0.5h11.2c4.6,0,9.2,0,13.7,0c8.4,0,16.9,0,25.3,0
	h10.1c1.3,0.1,2.5,0.1,3.8,0c2.8-0.2,5.7-0.7,8.4-1.4h-5.2l-20.7-0.8c-7.3,0-14.6,0-21.8-0.5c-7.3-0.5-15.1,0-22.7,0h-10.9
	c-6.6,0-13.1,0-19.6,0c-1,0.2-2-0.1-2.9-0.7c1.4-0.3,2.8-0.6,4.2-0.7l13.5-0.9l23.6-1.1c6.7,0,13.5,0,20.2,0c3,0,5.8,0,8.4,0
	c7.8,0,15.4,1,23.3,0.8c-7-0.8-14.1-1.1-21.2-1c-0.4-0.2-0.9-0.2-1.3,0h-0.8c-2.8-0.2-5.6-0.2-8.4,0h-25.3c-2.4,0.1-4.8,0.1-7.3,0
	c0-0.5,0.8,0,1.2-0.4c4.6,0,9.4,0,14-0.5c9.3,0,18.6,0,27.8,0c9.3,0,17.5,0,26.1,0.6c8.7,0.6,18.6,0.6,27.8,0.6c6,0,11.9,0,17.9,0
	l21-0.8h16.9l24.7-0.5h19.3c7.5,0,15.1-0.5,22.6-0.9c7.5-0.4,13.6,0,20.4-0.7c10.2,0,20.3-0.5,30.5-0.4c11.7,0,23.4,0.5,35,1.1
	c6.5,0,13,0,19.5,0.6c6.5,0.6,13.2,0,19.9,0.8c3-0.2,6-0.2,8.9,0c0.7,0,1.3,0,1.8,0.8c-4.3-0.4-8.6-0.4-12.9,0l-13.2,1.3
	c9.1,0.9,18.1,2.2,27.1,4h-5.6l-14.7-1.1l-20.9-1.3h-2.8c-2.8-0.2-5.6-0.2-8.4,0c2.6,0,5.2,0.5,7.8,0.5c5,0.4,9.9,1,14.8,1.8
	s9.8,1.1,14.7,1.5l16.3,1.2c0.7,0,0.9,0,0.9,1c0,0.7,0,1.4,0,2.1H492c0,0-0.8,0-1.3,0h-44.5L446.2,400z M399.4,389.6
	c3.5,0,7.1-0.6,10.6-0.8l7.3-0.5H416c-4.9,0.1-9.7,0.5-14.5,1.1c-0.7,0-1.4,0-2.1,0h-2C398,389.8,398.7,389.9,399.4,389.6z
	 M455.4,389.6h-2.6C453.6,389.9,454.5,389.9,455.4,389.6h0.9h2.7c7.2,0,14.3-1.2,21.5-1.3h4c-1.3-0.1-2.7-0.1-4,0h-2.6
	c-4.2-0.4-8.4-0.4-12.6,0L455.4,389.6z M441.5,389.6L441.5,389.6h-5.5c1.1,0.3,2.3,0.5,3.5,0.5L441.5,389.6z M395.1,389.6
	c0.6,0,1.1,0,1.7,0c-0.6,0-1.2,0.1-1.7,0.4V389.6z"/>
<path class="st0" d="M280.9,104.3c0.8,0.5,1.3,1.5,1.1,2.4c0,3.2,0,6.3,0,9.5c0,0,0,0.8,0.4,0.9c0.4,0.2,0.6,0,0.8,0
	c3.9-2.7,9.1-2.3,12.6,0.9c1.2,1.5,1.8,3.3,1.8,5.2c0,3.6,0,7.3,0,11s0,9.7,0,14.6v5.8c0,1.7-0.7,2.4-2.4,2.3c-1.7-0.1-4.8,0-7.2,0
	s-1.9,0-1.9-1.8v-23.2c0-1.3,0-2.7,0-4c0-1.3-0.6-2.3-1.8-2.2s-2.1,0.8-2.3,2.3c0,4.8,0,9.6,0,14.4c-0.2,3.5-0.2,7.1,0,10.6
	c0,0.6,0,1.3,0,1.9c0,1.1-0.4,1.7-1.5,1.7c-2.5,0-5.1,0-7.7,0s-2.2-0.4-2.3-2.1s0-3.5,0-5.3c0-8.4,0-16.9,0-25.3c0-3.1,0-6.2,0-9.2
	s0-5.1,0-7.8c-0.2-1.1,0.2-2.1,1.1-2.8L280.9,104.3z"/>
<path class="st1" d="M558.7,295.4c-0.4,0,0,0.5-0.4,0.8c-1.1,2.5-3.7,3.9-6.3,3.5c-3.2-0.4-5.5-3.4-5.1-6.6c0.3-2.4,2-4.3,4.3-4.9
	c2.8-0.8,5.8,0.6,7,3.2c0,0,0,0.7,0.5,0.8V295.4z M552.7,289c-2.7,0.4-4.6,2.8-4.2,5.5c0.3,2.2,2,3.9,4.2,4.2
	c2.6-0.1,4.7-2.3,4.7-4.9C557.4,291.2,555.3,289.1,552.7,289L552.7,289z"/>
<path class="st0" d="M354.5,303.5c-2.9-1.1-4.8-4-4.6-7.1c-0.5-8.4-1.6-16-2.5-24c-0.9-8-2.6-18.5-3.9-27.7
	c-0.5-4.2-0.8-8.4-1.2-12.8c-0.3-4.4-1.1-9.2-1.8-13.7c-1.2-8.4-2.5-16.9-3.4-25.7c-0.8-8.9-1.7-17.6-2.9-26.4
	c-0.8-6.5-1.5-13.1-2.4-19.6c-0.4-3-1-5.9-1.6-8.9c-0.8-4.7,1.4-6.4,5.7-6.7s7.3-0.5,10.9-0.7c3-0.4,6.1-1,9-1.8
	c1.6-0.4,3.2-0.7,4.9-0.8c2.7-0.2,5.2,1.5,6,4.1c0.4,2.1,0.7,4.2,0.7,6.3c0,2.7,0,5.4,0.5,8c1,7.2,2.5,14.2,2.9,21.3
	c0,0.8,0,1.7,0.9,2c0.9,0.4,1.9,0.1,2.6-0.6l1.5-1.3c4.3-4.1,9.7-6.6,15.6-7.3c3.7-0.7,7.4-0.7,11,0c4.5,1.1,8.6,3.6,11.6,7.2l1,1.3
	c0,0,0,0.5,0.6,0.4l0,0l0,0l0,0c0,0.1,0,0.3,0,0.4c4.2,6.4,7.3,13.5,9.1,20.9c1.8,6.9,3.3,13.9,4.4,20.9c1.1,6.7,1.8,13.5,2,20.3
	c0,2.4,0.2,4.8,0.4,7.2c0.5,5.9,1,11.9,1.3,17.9c0.3,4.5,0.1,9-0.6,13.5c-1.3,8.4-5.5,16.1-11.9,21.8c-4.4,3.8-9.8,6-15.6,6.4
	c-3.7,0.2-7.4-0.2-10.9-1.4c-2-0.8-4-1.7-5.8-2.9c-0.9-0.6-1.6-0.5-1.9,0c-0.3,0.7-0.4,1.4-0.5,2.2c0,2-0.9,2.9-2.9,3.1
	c-3.4,0.5-6.7,0.5-10.1,0.8c-4.2,0.4-8.4,1.2-12.6,2.1C358.6,303.3,356.6,303.7,354.5,303.5z M387,260c2.8,1.4,6.3,0.2,7.7-2.7
	c0.1-0.2,0.2-0.4,0.3-0.6c0.7-1.5,1-3.1,0.9-4.7c0-4.1,0-8.4-0.5-12.4c-0.5-9.7-1.6-19.3-3.5-28.8c-0.5-3.4-1.5-6.7-3-9.8
	c-0.7-1.4-1.9-2.6-3.3-3.5c-1.9-1.6-4.8-1.4-6.4,0.6c-0.2,0.3-0.4,0.6-0.6,0.9c-2,3-2.8,6.6-2.2,10.2c0,2.7,0.6,5.5,0.8,8.4
	c0.3,3,0.4,6,0.8,8.9c0.3,3,1.1,8.4,1.8,12c0.8,5.4,1.6,10.9,3,16.2C383.3,257,384.9,258.9,387,260z"/>
<path class="st0" d="M301.4,300.1c-1.3,0-2.7,0-3.5-1.4v-2.7c0-0.9,0-1.9-1-2.4s-1.5,0.4-2,0.9c-2.9,3-6.6,5-10.7,5.9
	c-3.3,0.6-6.7,0.7-10.1,0.4c-4.7-0.4-9.2-1.9-13.1-4.5c0,0-0.7-0.6-1.1-0.4l0,0c0,0,0,0-0.5-0.5c-3-2.4-5.5-5.5-7.3-8.9
	c-2.9-5.7-4.9-11.9-5.7-18.2c-1-6.7-1.4-13.5-1.1-20.2c0.1-8.6,1.6-17.2,4.6-25.3c3.6-9.8,12-17,22.3-19c6.5-1.6,13.3-0.6,19.1,2.8
	c1.8,1.2,4.2,0.6,5.4-1.2c0.6-0.9,0.7-1.9,0.5-2.9c-0.2-2-0.7-3.9-1.4-5.7c-1.1-2.3-3.2-4-5.7-4.4c-4.9-0.9-9.9-0.9-14.8,0
	c-3.5,0.4-7,1.5-10,3.3c-1.9,1.4-4.5,1.7-6.7,0.7l-0.7-0.4c-2.2-1-3.5-3.2-3.5-5.6c-0.1-1.7-0.1-3.5,0-5.2c0-3.5,0-7.1,0-10.6
	c-0.6-3.5,1.6-6.8,5.1-7.7c6.5-2.7,13.4-4.1,20.4-4.1c4.7,0,9.4-0.5,14.2,0c8.7,0.2,17.3,2.1,25.3,5.6c3.3,1.5,6.2,3.7,8.4,6.6
	c0.9,1.5,1.7,3.1,2.3,4.8c1.3,4.6,2,9.4,1.9,14.2c0,3.6,0,7.3,0,11c0,5.2,0,10.4,0,15.6c0,6.6,0,13.1,0,19.6c0,11,0,22,0,33
	c0.2,3.5,0.2,7.1,0,10.6c0,3.5,0,7.1,0,10.6c0.1,2.7-1.9,5.1-4.6,5.3c-2.3,0.2-4.6,0.2-6.9,0c-3.3,0-6.7,0-10,0
	S303.9,299.8,301.4,300.1z M293.5,237.9L293.5,237.9c-1.3-3.4-5.2-5-8.5-3.7c-0.8,0.3-1.6,0.8-2.3,1.5c-2.5,2.6-3.8,6.2-3.6,9.8
	c0,4,0,8.1,0,12.1c0,2.6,0.5,5.2,1.3,7.6c0.6,2,2.1,3.7,4,4.5c3,1.4,6.6,0.4,8.4-2.4c1.4-1.9,2.2-4.1,2.3-6.5c0-5.7,0-11.4,0-16.9
	c0.1-2-0.4-3.9-1.3-5.6L293.5,237.9z"/>
<path class="st0" d="M532.4,263.5c3.5,0,4.6,0,5.9,3.6c0.2,1.2,0.2,2.4,0,3.6c0,3.7,0,7.4,0,11c0,3.6,0,8,0,12.1
	c0.1,2.7-2.1,5-4.9,5.1c-0.1,0-0.3,0-0.4,0h-1.6c-3.5-0.2-6.9-0.2-10.4,0h-4.9c-3.8,0.5-7.6,0.5-11.4,0c-1.9-0.5-3.7-1.2-5.5-2
	c-3.4-2.4-5.8-6-6.7-10c-0.8-3-1.2-6.1-1.3-9.2c0-7,0.5-14,0.5-21c0-9,0-18,0-26.9c0-6.8,0-13.6,0-20.4c0-0.8,0-1.5,0-2.3v-0.8
	c0-2.2-0.6-2.9-2.7-3h-1.6c-2.9-0.4-3.5-1-3.8-3.9s0-5.9,0-8.9c0-5.4,0-10.9,0-16.4v-0.8c0-2.4,1.1-3.2,3.4-3.2c0.9,0,1.9,0,2.9,0
	s2.3-0.8,2.2-2.2c-0.5-5.1,0-10.3,0-15.4c0-2.5-0.5-5-0.7-7.5c-0.2-2.3,0.2-4.6,1.3-6.7c0.9-2.2,3.2-3.6,5.6-3.5
	c4.1,0,8.4,0.4,12.4,0.4c4,0,7.2-0.5,10.8-0.4c2.8-0.2,5.4,1.5,6.2,4.2c0.3,1.6,0.5,3.2,0.5,4.8c-0.1,2.1-0.1,4.3,0,6.4
	c0,3.5,0,7.1,0,10.6c-0.3,2.6-0.3,5.2,0,7.8c0,0.8,0.5,1.3,1.2,1.3c0.8,0.1,1.7,0.1,2.5,0h2.7c2.9,0,4,0.9,4.6,3.8
	c0.5,2.9,0,7.2,0,10.8c0,3.6,0.4,9,0.4,13.6c0,3.2,0,5.6-5.1,4.9h-3.1c-0.8,0-1.6,0.4-1.9,1.2c-0.5,0.8-0.7,1.7-0.7,2.6
	c0,2,0,4.1,0,6.2c0,7,0,14,0,21.1c0,5.2,0,10.5,0,15.9c0,3.1,0,6.2,0,9.3c-0.1,2,1.4,3.7,3.4,3.9
	C532.1,263.5,532.2,263.5,532.4,263.5z"/>
<path class="st0" d="M443.6,299c-3.9-1.3-4.3-4.6-4.3-7.9s0-7.3,0-11s0-6.7,0-10.1c0-7.4,0-14.8,0-22.3c0-5,0-9.9,0-14.8
	c0-5,0.5-11.9,0.7-17.9c0-4,0-7.9,0-11.9c0-4,0-9.9,0-14.8c0-5,0-9.8,0-14.7c0-2.2,0-4.4,0-6.6c0.1-1.5,1-2.9,2.3-3.6
	c1.5-1,3.4-1.5,5.2-1.3l7.9,0.4c3.9,0,7.8,0,11.6,0c1.9-0.1,3.9-0.1,5.8,0c2.3,0,4.4,1.6,4.8,3.9c0.3,1.2,0.4,2.3,0.4,3.5
	c0,3.8-0.4,7.5-0.7,11.3s0,8.4,0,12.9c0,6.3,0.5,12.6,0,19c-0.5,6.3,0,12.2-0.4,18.4c0,4.4,0,8.4,0.4,13.1c0.4,4.6,0,8.9,0,13.3
	s-0.5,8.4-0.5,13.2c0,3,0,5.9,0,8.4v4.8c0.2,2.8,0.2,5.6,0,8.4c0,3.3-2.7,6-6,5.9c-0.1,0-0.3,0-0.4,0c-3.4-0.2-6.8-0.2-10.2,0
	c-2.5,0-5.1,0-7.6,0C449.7,299,446.7,299.1,443.6,299z"/>
<path class="st0" d="M198.7,319c-7.4-0.4-14.8-1.2-22.2-2.4c-7.9-1.3-15.9-1.9-23.9-3c-1.7,0-3.5-0.5-5.2-0.6
	c-1.8-0.1-0.8-0.7-0.9-1.3s0.5-0.8,1.1-0.8h129c22.9,0,45.9,0,68.7,0H368c22.9,0,45.8,0,68.7,0h22.8c22.9,0,45.8,0,68.6,0h8.4
	c0.8,0,1.1,0,1.1,1c-0.1,0.8-0.1,1.7,0,2.5c0,0.8,0,1-1.1,0.9l-15.4,0.7l-25.3-1c-6.9-0.4-13.8,0-20.7,0h-25.3c-3,0-5.8,0-8.4,0
	c-3.6,0-7.1,0.5-10.5,1.5c1.9,0.1,3.9,0.1,5.8,0l20.2,0.9h16.3h19.5c5.1,0,10.1-0.5,15.2-0.4c5.1,0.1,8.4,0,13.1,0h11.3
	c0.8-0.1,1.6,0.1,2.2,0.6c-1.2,0.4-2.4,0.6-3.6,0.6c-4.2,0.5-8.4,0.8-12.6,1l-24.7,1.1h-11h-11.9c-10,0-20-1.3-29.9-0.8
	c10,0.9,19.9,1,29.9,1.1h23.8h9.9l0,0l0,0h-2.5c-8.4,0-16.9,0.5-25.3,0.6H460c-9.7,0-19.4,0-29.1-0.8h-14.5c-7.3,0-14.5,0-21.8,0
	c-7.3,0-15.8,0.6-23.7,0.8h-15.9h-24.6l-20,0.5l-24.5,0.8l-18.7,0.8c-12.6,0.4-25.3,0.4-37.9,0c-10,0-19.9-0.3-29.9-1
	c-4,0-7.9,0-11.9,0c-8.4,0-17.5,0-26.1-0.9c-3.2,0-6.4,0-9.6,0c-1,0-2.1,0-3-1c8.1,0.6,16.2,0.9,24.4,0.7l-9.7-0.6
	c-5.6,0-11.2-0.8-16.9-1.3c-1,0-0.7-0.8-0.8-1.3c-0.1-0.5,0-0.8,0.8-0.8h15.3l13.2,2l21.8,0.4h1.3c1,0.2,2,0.2,3,0
	C200.7,319.7,199.7,319,198.7,319z M248.9,321.7c0.5,0,1,0,1.6,0H248.9c-2.2-0.4-4.4-0.4-6.6,0c2.2,0,4.4,0.5,6.6,0.3L248.9,321.7z
	 M286.6,321.7c-3.5,0-6.9,0.6-10.5,0.8l-6.7,0.5h0.8c4.6,0,9.4-0.7,14-1.1c0.8,0,1.6,0,2.3,0c1.3,0.2,2.6,0.2,3.9,0
	C289.2,321.7,287.9,321.7,286.6,321.7L286.6,321.7z M230.9,321.7c-9.4,0-18.6,1.5-27.7,1.7C212.4,324.6,221.8,324,230.9,321.7
	L230.9,321.7z"/>
<path class="st0" d="M365.5,346.4c0.3,2.3,0.3,4.7,0,7c-0.5,3.1-2.1,5.8-4.6,7.8c-0.6,0.4-0.9,0.9-0.5,1.5c2.3,3.8,3.5,8.4,5.5,12
	c0.3,0.6,0.5,1.3,0.8,1.9c0.3,1.1-0.4,2.3-1.6,2.5c0,0,0,0,0,0c-0.8,0.1-1.5,0.1-2.3,0c-2.1-0.1-4.2-0.1-6.3,0c-1.6,0-2,0-2.4-1.7
	c-0.5-2.1-1.3-4.1-2.3-6.1c-0.7-1.5-1.3-3-1.7-4.6c0-0.4,0-0.8,0-1.2c-0.3-0.5-0.9-0.8-1.4-0.6c-0.6,0-0.8,0.6-0.8,1.1
	c-0.3,2.8-0.3,5.6,0,8.4c0,0.8,0,1.7,0,2.5c0,0.8-0.7,2.2-2.3,2.3h-1.6c-1.9-0.2-3.8-0.2-5.7,0c-1.1,0-1.7,0-2-1.5
	c-0.1-1.1-0.1-2.3,0-3.5c0-9.6,0-19.2,0-28.8c0-3.8,0-7.6,0-11.5c0-1.6,0.6-2.4,2.3-2.4h11c2.4-0.3,4.8-0.3,7.3,0
	c4.7,1.2,8.1,5.3,8.4,10.2L365.5,346.4z M347.3,349.7c-0.1,0.9-0.1,1.7,0,2.6c0.1,0.6,0.6,1.1,1.2,1.3c1.6,0.6,4.9,0,4.9-3
	c0.1-2,0.1-3.9,0-5.9c-0.4-3.1-1.9-3.6-4.7-3.3c-0.8,0-1.4,0.6-1.5,1.4c0,0.1,0,0.2,0,0.3C347.4,345.3,347.4,347.5,347.3,349.7z"/>
<path class="st0" d="M234.4,372.7c0-7.3,0-14.9,0-22.5c0-5.5,0-11,0-16.4c0-1.4,0.6-1.9,1.9-2c1.2-0.1,2.4-0.1,3.5,0h11.7
	c5.9-0.2,11,4.2,11.7,10c0,3.1,0,6.2,0,9.4c0.4,3.8-0.9,7.5-3.6,10.1c-0.4,0.4-0.5,1.1-0.1,1.5c0,0,0,0,0.1,0.1
	c1.5,2.7,2.8,5.5,3.9,8.4c0.6,1.4,1.3,2.9,1.9,4.3c0.7,1.4,0,3.9-2.4,3.7c-2.4-0.2-5.2,0-7.8,0c-0.9,0.2-1.8-0.4-1.9-1.3
	c-0.8-2.9-1.9-5.7-3.3-8.4c0-0.9-0.6-1.9-0.9-2.9c-0.3-0.9-0.5-1.6-1.6-1.5c-1.1,0.1-0.9,1.1-0.9,1.8c-0.2,3-0.2,6,0,8.9
	c0,0.3,0,0.6,0,0.9c0,1.9-0.7,2.9-2.6,2.8c-2.3-0.2-4.6-0.2-6.8,0c-1.6,0-2.4-0.6-2.4-2.2C234.9,375.7,234.4,374.3,234.4,372.7z
	 M245.9,348.9c-0.2,1.1-0.2,2.3,0,3.4c0.1,0.6,0.6,1.1,1.2,1.3c1.9,0.7,4.1-0.3,4.8-2.2c0.2-0.4,0.2-0.9,0.2-1.3c0-1.6,0-3.2,0-4.9
	c0-3-1.4-4.1-4.4-3.9c-1.3,0-1.9,0.6-1.8,1.9C246,345.1,246,347,245.9,348.9z"/>
<path class="st0" d="M420,372.5V350c0-5.1,0-10.2,0-15.3c0-2.4,0.6-3.1,3-3c5,0,9.9,0,14.8,0c5.9,0,10.8,4.6,11.2,10.5
	c0,2.8,0,5.6,0,8.4c0.5,3.9-0.9,7.9-3.8,10.6c-0.5,0.4-0.9,0.8-0.4,1.5c1.9,3.3,3,7,4.7,10.5l1.3,3c0.5,1,0.1,2.3-1,2.8
	c-0.3,0.1-0.5,0.2-0.8,0.2h-1.9c-2.1-0.1-4.3-0.1-6.4,0c-1.6,0-2,0-2.4-1.9c-0.4-1.7-1-3.3-1.7-4.9c-0.9-1.8-1.7-3.8-2.3-5.7
	c0-0.4,0-0.7,0-1.1c-0.2-0.5-0.7-0.7-1.3-0.7c-0.5,0.1-0.9,0.5-0.9,1c0,0.8,0,1.7,0,2.5c0,2.7,0,5.3,0,8s-0.8,3-2.9,2.9
	c-2-0.3-4.1-0.3-6.2,0c-2.4,0-2.8-0.9-2.9-3.1v-3.7L420,372.5z M437.6,347.2c0-0.8,0-1.8,0-2.6c-0.4-3.2-1.7-4-4.9-3.6
	c-0.7,0-1.3,0.4-1.3,1.3c0,2.9,0,5.8,0,8.4c-0.1,0.8,0.3,1.7,1,2.1c2,0.8,4.3-0.2,5.1-2.2c0.3-1,0.4-2,0.4-3L437.6,347.2z"/>
<path class="st0" d="M188.6,353.2c3.3,2.5,5.2,6.5,4.8,10.6c0.2,2.6-0.2,5.2-0.9,7.8c-1.3,4.6-5.5,7.7-10.3,7.6H167
	c-1.9,0-2.4-0.6-2.4-2.4c0-3.1,0-6.2,0-9.2c0-4.7,0-9.5,0-14.3c0-0.9,0-1.8,0-2.6c-0.5-5.1,0-10.3,0-15.4c0-2.5,0.8-3.4,3.3-3.3
	c4.6,0,9.3,0,13.9,0c3.6-0.3,7.1,1.6,8.9,4.7c1.3,2.6,1.9,5.5,1.5,8.4C192.3,348.2,191,351.1,188.6,353.2z M176.4,363.8
	c0,1.1,0,2.2,0,3.3c0,1.1,1.1,2.4,2.9,1.9c1.1-0.3,1.9-1.4,1.9-2.5c0.1-1.4,0.1-2.9,0-4.3c0-1.5-1-2.8-2.4-3.1c-1-0.3-2,0.2-2.4,1.2
	c0,0.1-0.1,0.3-0.1,0.4C176.3,361.7,176.4,362.7,176.4,363.8z M176.4,345.3L176.4,345.3v2c0,1.5,0.7,2,2.2,1.6
	c1.5-0.3,2.5-1.6,2.4-3.1c0.3-1.8-0.5-3.6-2.1-4.5c-1.5-0.6-2.4,0-2.5,1.8L176.4,345.3z"/>
<path class="st0" d="M216,351.8c0-6.4,0-12.3,0-18.3c-0.2-0.8,0.3-1.6,1.1-1.8c0.1,0,0.2,0,0.4,0h0.8h6.9c1.9,0,2.6,0.7,2.7,2.3
	c0,5.2,0,10.5,0,15.8s0,12.4,0,18.6c0,2.7-1,5.2-3,7.1c-2.2,2.4-5.2,3.9-8.4,4.2c-3.3,0.5-6.7,0.2-9.9-0.7c-4.5-1.2-7.6-5.3-7.5-10
	c0-5.1,0-10.1,0-15.2c0-3.8,0-7.5,0-11.2s0-4.8,0-7.2c0-0.7,0-1.4,0-2.1c0.1-1,1.1-1.8,2.1-1.7h7.4c1.8,0,2.4,0.7,2.4,2.3
	c0,6.5,0,12.9,0,19.3c0,4.6,0,9.1,0,13.7c0,1.3,0.9,2,2.4,2.1c1.5,0.1,3-0.6,3.1-1.9c0.1-1.9,0.1-3.9,0-5.8
	C215.8,358,215.8,354.7,216,351.8z"/>
<path class="st0" d="M291,348.8h4.9c1.7,0,2.2,0.5,2.5,2c0,0.5,0,1,0,1.5c0,6.1,0,12.1,0,18.2c0,1.8,0,3.6,0,5.5
	c0.2,1.3-0.7,2.6-2,2.9c-1,0.3-1.9,0.5-3,0.6c-4.2,0.4-8.5,0.1-12.6-0.7c-5.1-1.2-9.1-5.1-10.5-10.2c-1.6-4.3-2.2-8.9-1.8-13.5
	c0.1-2.8,0.4-5.7,1-8.4c0.9-3.4,2.6-6.5,4.9-9.2c2.6-2.9,6.2-4.8,10-5.3c3.5-0.7,7.2-0.7,10.7,0c1.6,0,2.1,0.8,2.2,2.4
	c0.1,2,0.1,4,0,6.1c0,2-1.4,2.9-3.5,2.3c-2.2-0.5-4.4-0.5-6.6,0c-3.7,0.8-6.4,4-6.6,7.8c-0.3,3.3-0.3,6.6,0,10
	c0.1,2.1,0.6,4.1,1.3,6c0.5,1.4,1.8,2.4,3.2,2.6c0.9,0.3,1.8-0.1,2.2-1c0.1-0.2,0.1-0.5,0.1-0.7c0-2.2,0-4.3,0-6.4
	c0-0.7-0.5-1.3-1.2-1.3c-0.1,0-0.2,0-0.3,0c-1.7,0-1.8,0-1.8-1.8c-0.1-2.2-0.1-4.5,0-6.7c0-1.8,0.6-2.1,2.4-2.1L291,348.8z"/>
<path class="st0" d="M406.1,348.8h4.7c1.9,0,2.7,0.5,2.8,2.4c0.1,1.9,0,5.4,0,8.4s0,7.8,0,11.7c0,1.6,0,3.3,0,4.9
	c0.2,1.4-0.8,2.8-2.2,3c-0.9,0.3-1.8,0.5-2.8,0.6c-4.3,0.4-8.5,0.1-12.7-0.7c-5.4-1.4-9.6-5.7-10.9-11.1c-1.3-4.5-1.7-9.3-1.3-14
	c0.1-3.7,0.8-7.3,2.1-10.7c2.2-6,7.6-10.2,13.9-11c3.5-0.6,7-0.6,10.5,0c1.7,0,2.3,0.9,2.3,2.6s0,4,0,6c0.1,1.3-0.8,2.4-2.1,2.5
	c-0.4,0-0.8,0-1.1-0.2c-2.1-0.6-4.4-0.8-6.6-0.5c-3.5,0.7-6.2,3.6-6.7,7.2c-0.4,3.8-0.4,7.7,0,11.6c0.2,1.9,0.7,3.8,1.5,5.5
	c0.6,1.2,1.7,2,3,2.2c0.9,0.2,1.9-0.3,2.1-1.3c0-0.1,0-0.3,0.1-0.4c0.2-2.2,0.2-4.4,0-6.7c0-0.9-0.7-1.1-1.4-1.1s-1.8,0-1.8-1.9
	c0-1.9,0-4.3,0-6.5c0-2.2,0.6-2.3,2.4-2.3L406.1,348.8z"/>
<path class="st0" d="M305,372.5c0-4.7,0-9.1,0-13.6s0-9.2,0-13.8c0-4.6,0-7,0-10.5c-0.2-1.2,0.5-2.3,1.7-2.6c0.2-0.1,0.5-0.1,0.7,0
	h19c1.9,0,2.8,0.7,2.8,2.5c0,1.9,0,3.5,0,5.1s-0.9,2.7-3.1,2.7H321c-0.9-0.1-1.8-0.1-2.7,0c-0.7-0.1-1.4,0.4-1.5,1.2
	c0,0.1,0,0.2,0,0.4c0,1.3,0,2.6,0,3.9s0.6,1.8,1.9,1.8h7.3c2.5,0,3.2,0.7,3.2,3.2v4.5c0.2,1.4-0.8,2.7-2.2,2.9c-0.2,0-0.4,0-0.6,0
	h-5.8l0,0c-2.7,0-3.5,0-3.2,3.3c0,1.1,0,2.3,0,3.4c0,1.1,0.6,1.9,2.2,1.9c1.6,0,5.4,0,8.4,0s3.1,0.8,3.1,3.4c0,2.5,0,3.1,0,4.6
	c0,1.5-0.9,3-3,3c-3.9,0-7.8,0-11.6,0c-2.5,0-5.1,0-7.6,0s-3-0.8-2.9-3L305,372.5z"/>
<path class="st0" d="M445.2,150.4c-1.7-0.1-3.1-1.3-3.5-3c-0.5-1.6-0.8-3.3-0.8-5.1c0-3.5,0-7.1,0-10.6s1.2-7.1,6.7-7.1
	c4,0,7.9,0.6,11.9,0.4c4-0.2,8.4,0,12.3-0.4s4.4,0,5.7,3.7c0.2,1.6,0.2,3.2,0,4.7c0,1.6,0,3.1,0,4.7c0,1.6,0,4.6,0,6.9
	c0.4,2.4-1.3,4.6-3.6,5c-0.7,0.1-1.4,0.1-2,0c-4,0-7.8,0-11.8,0L445.2,150.4z"/>
<path class="st0" d="M325.1,150.4c0,1,0,2,0,3c0.1,1-0.5,2-1.5,2.4c-1.7,0.7-3.5,1.1-5.3,1.3c-3.1,0.4-6.3,0.2-9.3-0.8
	c-4.6-1.7-7.9-5.8-8.4-10.7c-0.7-4.6-0.9-9.3-0.4-13.9c0.1-2.2,0.4-4.3,0.8-6.4c1.5-6.8,8.3-11.1,15.1-9.6c5,1.1,8.8,5.1,9.7,10.1
	c0.3,3.7,0.3,7.4,0,11c0.2,1-0.1,2.1-0.7,3c-0.5,0.8-1.4,1.2-2.3,1.1c-3.5,0-7.1,0-10.6,0c-1.3,0-2,1-1.7,2.4
	c0.4,2.2,2.3,3.8,4.6,3.8c2.1,0.3,4.1-0.1,6-1c0.5-0.3,1.1-0.6,1.7-0.7c1.2-0.1,2.2,0.7,2.3,1.8c0,0.1,0,0.2,0,0.4L325.1,150.4
	L325.1,150.4z M310.3,129.5v1.4c0,0.4,0,0.9,0.7,1.1c1.2,0.3,2.4,0.3,3.6,0c0.5-0.2,0.9-0.7,0.9-1.3c0.1-1.4,0.1-2.8,0-4.2
	c-0.2-1.1-1.1-2-2.3-2.1c-1.2-0.2-2.3,0.7-2.4,1.9C310.4,127.4,310.3,128.5,310.3,129.5z"/>
<path class="st0" d="M510.9,379.2c-2.2,0-5.1,0-7.9,0c-2.9,0-3.1-0.8-3-2.9c0-5.1,0-10,0-15c0-2.8,0-5.5,0-8.4c0-5.2,0-10.5,0-15.7
	c0-1.3,0-2.6,0-4s0.5-1.9,1.9-1.8c2.5,0.2,5,0.2,7.4,0c2,0,2.6,0.5,2.4,2.5c-0.5,5.6,0,11.1,0,16.9s0,9.4,0,14.2v0.8
	c0,2.5,0.8,3.2,3.4,3c1,0.1,1.9,0.1,2.9,0c2.1,0,3.2,0.5,3.2,2.6s0,3.6,0,5.5c0,1.9-0.8,2.4-2.5,2.4L510.9,379.2z"/>
<path class="st0" d="M486.3,379.2c-2.2,0-5.1,0-7.9,0c-1.4,0.3-2.8-0.6-3.1-2c-0.1-0.3-0.1-0.6,0-0.8c0-1.1,0-2.2,0-3.2
	c0-6.8,0-13.7,0-20.5c0-4.9,0-9.9,0-14.8c0.1-1.3,0.1-2.6,0-3.9c0-1.8,0.4-2.5,2.3-2.4c2.4,0.3,4.7,0.3,7.1,0c2,0,2.7,0.5,2.5,2.5
	c-0.4,4.6,0,9.2,0,13.8c0,4.6,0,11.6,0,17.3c0,0.4,0,0.7,0,1.1c0,1.9,0.9,2.4,2.8,2.4c1.2,0.1,2.4,0.1,3.6,0c1.9,0,3,0.6,3,2.5v5.6
	c0.1,1.2-0.7,2.3-1.9,2.4c-0.1,0-0.3,0-0.4,0L486.3,379.2z"/>
<path class="st0" d="M255.2,137.9c0-2.8,0-5.6,0-8.4c0-1.1,0-1.6-1.4-1.5s-1.3-0.5-1.2-1.3c0-2.5,0-5.1,0-7.5c0-0.8,0-1.1,1.2-1
	c1.2,0.1,1.3,0,1.3-1.3c-0.1-1.3,0-4.2,0-6.3s0.8-3,2.9-3h5.7c1.9,0,2.4,0.5,2.4,2.4s0,4.3,0,6.5s0,1.6,1.5,1.6c1.5,0,1.9,0,1.7,1.5
	c-0.1,2.2-0.1,4.5,0,6.7c0,1.5,0,1.7-1.8,1.6s-1.4,0-1.4,1.4v15c0,1,0,1.7,1.4,1.6c1.4-0.1,1.5,0.6,1.5,1.4c0,2.6,0,5.1,0,7.7
	c0,0.9-0.5,1.6-1.5,1.5c-2.3,0-4.6,0-6.8,0c-2.8,0.3-5.3-1.8-5.6-4.6c0-0.1,0-0.3,0-0.4c0-3.6,0-7.3,0-11v-2.9L255.2,137.9z"/>
<path class="st0" d="M463,331.8h3.7c1.5,0,2.2,0.7,2,2.1c-0.3,5.8-0.3,11.6,0,17.5c0,4,0,8.4,0,12.1s0,6.9,0,10.4c0,0.9,0,1.9,0,2.9
	s-0.5,2.4-2.2,2.4H459c-1.6,0-2.2-0.5-2.2-2.2c0-5.8,0-11.7,0-17.6c0-3.7,0-7.3,0-11s0-9.2,0-13.8c0-2.3,0.5-2.9,2.9-2.8L463,331.8z
	"/>
<path class="st1" d="M415.9,169.4c0,0,0,0-0.6-0.4C415.6,169,415.8,169.2,415.9,169.4z"/>
<path class="st1" d="M259.1,295.4c0,0,0.6,0,0.5,0.5C259.4,295.9,259.2,295.7,259.1,295.4z"/>
<path class="st1" d="M416.2,169.9L416.2,169.9C416.2,169.9,416.3,169.6,416.2,169.9z"/>
<path class="st1" d="M293.5,238.2L293.5,238.2z"/>
<path class="st1" d="M553.9,294.4l1.7,2.7c-0.8,0.4-1.3,0-1.6-0.6c-0.4-0.6-0.7-1.2-1-1.8c-0.3-0.2-0.8-0.2-1.1,0
	c-0.5,0,0,0.5,0,0.8c0,0.5,0,1.1,0,1.6c0,0.5,0,0.6-0.6,0.6c-0.6,0-0.5,0-0.5-0.6v-5.7c0-0.4,0-0.6,0.6-0.5h2c1.5,0,2.2,0,2.4,1.4
	S554.9,293.7,553.9,294.4z M552.4,293.4c0.9,0,1.9,0,1.9-1s-1.1-0.9-1.9-1.1c-0.8-0.2-0.8,0.5-0.9,1.1c-0.1,0.6,0.3,1.3,0.9,1.3
	V293.4z"/>
</svg>
